<svg width="120" height="49" viewBox="0 0 120 49" fill="none" xmlns="http://www.w3.org/2000/svg">
<path fill-rule="evenodd" clip-rule="evenodd" d="M0.991017 1.45817C1.53573 2.25984 2.07513 3.2234 2.18947 3.59895C2.3038 3.9745 4.90241 12.9976 7.96407 23.6505C11.0261 34.3034 13.7183 43.3864 13.9473 43.8349C14.1764 44.2835 15.0278 45.3441 15.8395 46.1918C18.2642 48.7245 19.5941 48.932 33.3998 48.932H45.4426L44.6023 48.0146C43.1674 46.4475 42.7068 45.192 36.1103 24.8738C32.579 13.9966 29.4418 4.61429 29.1388 4.02425C28.3585 2.50491 26.3422 0.918699 24.5647 0.425709C23.686 0.181864 18.1895 0.00367011 11.5231 0.00244681L0 0L0.991017 1.45817ZM94.9755 0.594932C93.0596 1.27672 91.597 2.59095 90.6443 4.48544C90.2495 5.27039 87.1258 14.5328 83.7031 25.0687C77.6639 43.658 76.5492 46.6885 75.1772 48.2454C74.5484 48.9589 74.9865 48.981 87.3728 48.857C100.214 48.7282 100.221 48.7277 102.022 47.7087C105.538 45.7184 105.601 45.5671 111.858 24.0583C115.022 13.1811 117.703 3.9745 117.815 3.59895C117.927 3.2234 118.464 2.25984 119.009 1.45817L120 0L108.273 0.017942C99.4128 0.0313983 96.1617 0.172485 94.9755 0.594932ZM47.3418 24.6699V48.932H60.2042H73.0666V24.6699V0.407767H60.2042H47.3418V24.6699Z" fill="white"/>
</svg>
