<svg width="162" height="118" viewBox="0 0 162 118" fill="none" xmlns="http://www.w3.org/2000/svg">
<path d="M0 16C0 7.16345 7.16344 0 16 0H43C51.8366 0 59 7.16344 59 16V101C59 109.837 51.8366 117 43 117H16C7.16344 117 0 109.837 0 101V16Z" fill="black"/>
<path d="M32 16C32 11.5817 35.5817 8 40 8H131C135.418 8 139 11.5817 139 16V93C139 97.4183 135.418 101 131 101H40C35.5817 101 32 121.418 32 117V16Z" fill="black"/>
<path d="M21.0196 30.1188C21.8882 26.5287 25.1017 24 28.7953 24H151.334C156.513 24 160.327 28.847 159.109 33.8812L140.48 110.881C139.612 114.471 136.398 117 132.705 117H10.1663C4.9868 117 1.17265 112.153 2.39062 107.119L21.0196 30.1188Z" fill="#5E3A1D"/>
<path d="M13 97H136" stroke="#754F31" stroke-width="1.5" stroke-linecap="round"/>
<path d="M10 105H133" stroke="#754F31" stroke-width="1.5" stroke-linecap="round"/>
</svg>
