<svg width="103" height="42" viewBox="0 0 103 42" fill="none" xmlns="http://www.w3.org/2000/svg">
<path fill-rule="evenodd" clip-rule="evenodd" d="M0.850623 1.2516C1.31817 1.9397 1.78116 2.76675 1.87929 3.0891C1.97743 3.41145 4.2079 11.1562 6.83582 20.3C9.4641 29.4437 11.7748 37.24 11.9715 37.625C12.1681 38.01 12.8988 38.9203 13.5956 39.648C15.6768 41.8218 16.8183 42 28.6681 42H39.0049L38.2836 41.2125C37.052 39.8674 36.6567 38.7898 30.9946 21.35C27.9637 12.0138 25.2709 3.9606 25.0108 3.45415C24.3411 2.15005 22.6104 0.78855 21.0847 0.3654C20.3305 0.1561 15.6126 0.00315018 9.89064 0.00210018L0 0L0.850623 1.2516ZM81.5206 0.51065C79.8762 1.09585 78.6207 2.2239 77.8031 3.85C77.4641 4.52375 74.7829 12.474 71.8452 21.5173C66.6615 37.4731 65.7047 40.0743 64.5271 41.4106C63.9874 42.0231 64.3634 42.042 74.995 41.9356C86.0173 41.825 86.0233 41.8246 87.5686 40.95C90.5866 39.2416 90.6406 39.1118 96.0114 20.65C98.7273 11.3138 101.028 3.41145 101.124 3.0891C101.22 2.76675 101.682 1.9397 102.149 1.2516L103 0L92.9341 0.0154002C85.3293 0.0269502 82.5388 0.14805 81.5206 0.51065ZM40.635 21.175V42H51.6752H62.7155V21.175V0.35H51.6752H40.635V21.175Z" fill="white"/>
</svg>
